<svg xmlns="http://www.w3.org/2000/svg" viewBox="0 0 455.3 332"><style><![CDATA[
	.st0{fill:#101010;}
	.st1{fill:#B78460;}
	.st2{fill:#F4F4F4;}
	.st3{fill-rule:evenodd;clip-rule:evenodd;fill:#8AD4B8;}
	.st4{fill:#FFFFFF;}
	.st5{fill:#37271C;}
	.st6{fill-rule:evenodd;clip-rule:evenodd;fill:#37271C;}
	.st7{fill:#DCA279;}
]]></style><path class="st3" d="M316 53.8H139.9l-3.7 8.8h184.4l-4.6-8.8zm14.5 62.4s.7-6.4.5-12.7c-.2-5.9-1.4-11.7-1.4-11.7h-203s-1.2 6.7-1.5 12.4c-.2 5.9.5 12 .5 12h204.9zm37 131.8c9.9-10.7 8.8-26.3 8.8-26.3s-2.5-3.1-5.9-4.9c-2.9-1.6-6.8-2-6.8-2-.1-.2-13.9 1.1-24.2 14.1-9.7 12.3-13.9 29.9-13.9 29.9s-.5 10.7 4.9 17.6c5.3 6.8 16.6 7.8 16.6 7.8s5-.8 15.6-8.8c7.1-5.4 10.7-11.7 10.7-11.7s-1.1-3.1-2-3.9c-.5-.5-1 0-1 0s-13.2 16.6-24.4 15.6c-6.9-.6-4.9-12.7-4.9-12.7s17.6-5 26.5-14.7zm-16.5-8.8c7.6-10.1 14.6-10.7 14.6-10.7s.3 6.4-7.8 16.6c-5.2 6.4-14.6 10.7-14.6 10.7s.4-6.9 7.8-16.6zM278 17.7H178l-3.7 2.9h108.3l-4.6-2.9zm28.3 22.4H150.7L147 45h162.9l-3.6-4.9zm-12.7-12.7H162.4l-3.7 5.9h140.5l-5.6-5.9zm33.2 50.4c-1-3.1-3.1-6.4-3.1-6.4H132.3s-1.8 2.5-2.7 5.3c-1 3.1-1.1 6.4-1.1 6.4h199.1c-.1-.1.1-2.6-.8-5.3zm-91.2 197c-2.3.3-4.7-.5-4.7-.5s.8-9.1 4.8-20c4.7-12.9 12.8-25.9 12.8-25.9s-1.2-4.5-3.2-6.1c-1.9-1.4-4.6-1.7-4.6-1.7s-7.1-1.5-16.6 6.8c-10 8.7-22.4 26.3-22.4 26.3l14.6-27.3s-1.6-2.4-4-3.7c-2-1.1-4.8-2.1-4.8-2.1s-7.2-2.3-16.6 6.8c-11 10.6-24.4 30.3-24.4 30.3s.4-2.7 2-5.9c4-8.1 13.2-22.8 15.7-28.3.6-1.2-.1-2-.1-2s-2.1-1.9-3.7-3.2c-1.8-1.5-4.3-2.3-6.2-3.5-1.1-.7-3.8-1.1-3.8-1.1s-18.1 27.6-21.5 52.7c-1.2 9.3 6.8 15.6 6.8 15.6l.9-.3s13.3-19.8 22.5-30.9c8-9.6 15.6-15.6 15.6-15.6s-5 8.9-8.8 18.5c-3 7.8-4.9 16.6-4.9 16.6s-.4 2.7 1 4.9c2.6 4 7.8 6.8 7.8 6.8s15.7-21.4 26.3-34.2c5.5-6.5 9.8-8.8 9.8-8.8s-3.4 6.5-5.7 12.6c-2.1 5.5-3.1 10.8-3.1 10.8s-3.7 14.3 5.9 19.5c6.3 3.4 17.6-3.9 17.6-3.9l-1-4.9c.1.2-1.9 1.4-4 1.7zm-97.4-50.2s-1.3-1.2-2.6-1.4c-1.6-.3-3.2.4-3.2.4s-1.5-2.8-3.9-5.4c-2-2.3-4.9-4.4-4.9-4.4s-25.6.4-37.1 40c-2.8 26.2 15.6 30.3 15.6 30.3s25.4-4 34.2-24.4c11.3-26.4 1.9-35.1 1.9-35.1zm-11.7 33.1c-5.2 12.2-22.4 18.5-22.4 18.5s-7-7.5 1-23.4c10-20 23.4-25.4 23.4-25.4s4.7 6.4-2 30.3zm177.6-40c-11.4 4.4-20.5 17.6-20.5 17.6s4-9 8-16c2.6-4.6 5.7-8.4 5.7-8.4s-.3-1.8-2-2.8c-2.4-1.4-6.6-3.2-8.9-4.1-3.8-1.4-4.7.1-4.7.1s-4.6 5.8-8.6 14.8c-3.4 7.7-6.4 17.9-10.4 28.7-5.1 13.8-11.2 28.7-15.2 41.4-5.3 16.5-2.9 31.2-2.9 31.2s3 3.4 5.7 5.5c2.1 1.7 4 2.3 4 2.3s5.4-33.4 16.6-58.6c16.9-38 34.1-45.1 36.1-45.9 0 0-3.6 16-11.7 29.3-8 13.1-20.5 23.4-20.5 23.4s4.1 4 7.8 3.9c8.5-.3 21.1-7.7 31.2-26.3 8.1-14.8 5.9-29.3 5.9-29.3s-5.1-9.9-15.6-6.8zm145.4 6.9c.7-1.4 0-2.9 0-2.9s-6.5-2.7-10.2-3.8c-2-.6-3.4-.1-3.4-.1s-4.3 4.7-7.8 11.7c-3.1 6.1-6 13.1-10.7 20.5-6.6 10.2-17.6 21.5-17.6 21.5s-3 .3 2-13.7c5.4-15.3 18.5-38.1 18.5-38.1s2.1-1.9 0-2.9c-1.9-1-5.4-2.7-8-3.3-2.1-.4-3.7.3-3.7.3s-10.7 9.1-18.5 27.3c-7.3 17-6.8 31.2-6.8 31.2s4.9 7 8.8 8.8c4.8 2.2 8.8 0 8.8 0s2.6-2.4 3.9-3.9c4.2-5 11.7-14.6 11.7-14.6s-.1 7.9 3.9 11.7c5.5 5.2 15.6 6.8 15.6 6.8l-.2-2s-4.5-9.2-2.8-17.5c2.9-13.7 13.5-30.9 16.5-37zM92.3 195.3c-20.5-34.9-81-3.9-81-3.9s-.9 2.2 0 3.9c.9 1.8 1.3 3.8 2.6 5.8 2.2 3.2 5.2 6 5.2 6s3.3-2.8 7.1-4.9c4.9-2.7 11.5-4.9 11.5-4.9s-2 9.9-5.9 19.5c-9.4 23.4-26.3 60.5-26.3 60.5S9 283 12.6 286c4.1 3.3 8.5 3.9 8.5 3.9s4.2-15.2 8.8-28.7c3.6-10.6 7.8-20.1 7.8-20.1s5 1.8 11.9 1.8c8.2 0 19.1-2.3 27.2-7.7 19.3-12.8 19.1-33.8 15.5-39.9zm-4.8 13.6s-4.4 10.4-15.6 15.6c-11.4 5.3-28.3 4.9-28.3 4.9l18.5-38.1s7-1.5 13.7 0c6.5 1.4 11.7 10.7 11.7 10.7v6.9zm140.5 1c87 0 101.5-83.9 101.5-83.9h-202s10.4 79.5 100.5 83.9zM242.6 5s-8-1-15.3-1c-7.8 0-14.9 1-14.9 1l-8.8 2.9h48.8L242.6 5z" id="texto-circulo-fundo"/><path id="rosto" class="st7" d="M181.3 110.2l-1.1 23.9s-2.3-1.8-3.4-6.2c-.8-3.3-.3-8.6-1.4-12.7-1.6-5.9-3.7-14-4.2-14 0 0 .2-2.8 1.3-3.8.7-.6 2.3.4 2.3.4s3.4 1.3 5 4.3c1.7 3.1 1.5 8.1 1.5 8.1zm102.5 10.2c-1.2 4-.8 9.4-1.7 12.6-1.2 4.4-3.5 6.1-3.5 6.1l-.5-23.8s-.1-4.9 1.6-8c1.6-3 5-4.2 5-4.2s1.7-.9 2.3-.4c1.1 1 1.2 3.8 1.2 3.8-.4 0-2.7 8-4.4 13.9zm-3.3-20.6c-.5 17.7-.8 35.7-.8 35.7s.6 11.4-2.8 21.3c-4 11.7-12.2 22.2-12.2 22.2s-7.2 7.7-14.2 13.3c-6.4 5.2-12.5 8.3-12.5 8.3l-8.9.3-8.5-.5s-6.1-3.3-12.3-8.6c-6.8-5.8-13.8-13.7-13.8-13.7s-6.1-11-9.8-22.9c-3.1-9.9-4-21.1-4-21.1s-.3-16.6-.4-33.7c0-3.7-2.9-12.8 1.1-33.9.3-1.5 4.3-7.5 9.8-9.5 1.6-.6 3.8 0 5-.7 2.8-1.6 3.9-5.1 3.9-5.1s2.4.6 4.8.4c1.7-.1 4-1.9 6.6-.1 2.5 1.7 4.8 4.1 7.8 5.4 6.3 2.8 11.8 4 11.8 4s2.9-.3 12.3-4.3c3-1.3 5.9-3.7 8.9-4.5 4.9-1.3 9.6-.5 9.6-.5s.9 3.6 2.7 4.7c1.6 1 3.6-.9 5.7.6 1.1.8 2.5 4.8 3.5 5.7 2.8 2.4 5.2 2.5 5.2 2.5s2.7 13 3.2 23.2c.1 5.3-1.7 9.9-1.7 11.5z"/><path id="desenho-nariz-boca-olho" class="st1" d="M230.7 158.9l-21.7-3 18.6-.6 3.1 1.2 3.5-1.5 18.6.6-22.1 3.3zm-.9 9.3c-13.9-.2-17.3-8.3-17.3-8.3s6.1 7.5 17.4 7.5c10.5 0 19.8-6.7 19.8-6.7s-8.3 7.7-19.9 7.5zm32-15.1l-3.3 13.5 2.1-13.5s.4-2.4-.3-3.5c-1.2-1.6-3.3-3.6-5.5-6-4-4.4-8.2-9.1-8.2-9.1s1.8 3.9-.5 6.2c-1.7 1.7-5.4 1.1-7.8 2.2-2.7 1.3-3.9 3.8-3.9 3.8s-2.2.7-4.1.7c-1.5 0-2.9-.4-2.9-.4s-1.6-2.1-4.6-3.5c-2.2-1-5.6-1.1-7.3-2.4-1.8-1.4-2.3-4.7-2.3-4.7s-2.8 4.3-5.5 8c-2 2.7-3.9 4.6-5.1 6.5-.7 1-.8 3.5-.8 3.5l2.5 16.2-4.1-17s.6-2.5 1.2-3.5c1-1.5 3.7-4.1 5.5-6.5 4-5.5 7.5-11.5 7.5-11.5s-1 4.8 1.5 7.3c1.7 1.7 5.1 1.7 7.3 2.8 2.8 1.3 4.2 3.5 4.2 3.5s.8.4 1.5.4c.6 0 1-.4 1.7-.4.6 0 1.2.4 1.8.4.9 0 1.6-.4 1.6-.4s1.5-2.7 3.9-3.8c2.4-1.1 5.8-.5 7.4-2.6 2.1-2.8-.3-8.1-.3-8.1s5.5 6.2 10.3 11.3c2.3 2.5 4.3 4 5.7 5.9 1.1 1.5.8 4.7.8 4.7zm-66.7-40.7c-.7.8-1.3 1.4-1.3 1.4l.8 1.2c.4.6.8 1.3.8 1.3s-.7-.2-1.3-1c-.5-.6-1.1-1.8-1.1-1.8s.9-1.2 2.1-1.9c1.6-1 3.6-1.8 3.6-1.8s-2.3 1.3-3.6 2.6zm23.3 5.3c-.3 1.3-1.5 2.9-1.5 2.9s.1-.8.3-1.5c.1-.7.3-1.5.3-1.5s-2.2 1.6-3.7 2c-2.4.6-5.3.5-5.3.5s2.8-.2 5.3-1.1c2-.7 4.7-2.7 4.7-2.7s0 .7-.1 1.4zm49.3-2.3c-.7.7-1.4.9-1.4.9l.8-1.2.8-1.2s-.6-.6-1.3-1.4c-1.3-1.4-3.5-2.6-3.5-2.6s2 .8 3.6 1.8c1.1.8 2 1.9 2 1.9s-.4 1.2-1 1.8zm-19.8 3.9c-1.5-.4-3.7-2.1-3.7-2.1s.1.7.2 1.5c.1.7.2 1.5.2 1.5s-1.2-1.6-1.5-2.9c-.2-.7.1-1.3.1-1.3s2.7 2 4.6 2.8c2.5 1 5.3 1.2 5.3 1.2s-2.8-.1-5.2-.7z"/><path id="esclerotica-olho" class="st2" d="M214.2 117.1s-3.6 1.5-7.5 1.5c-3.7 0-7.7-1.6-7.7-1.6l-2.7-1.6-.8-1.2 1.6-1.9 3.1-1.1 2.7-.4 7.4.5 3.1 1.6 2.7 2 .8.8-2.7 1.4zm51.1-1.7l-2.7 1.5s-4 1.5-7.7 1.5c-3.9 0-7.4-1.6-7.4-1.6l-2.7-1.6.8-.8 2.7-1.9 3.1-1.5 7.4-.3 2.7.4 3.1 1.2 1.5 1.9-.8 1.2z"/><path id="contorno-iris-olho" class="st5" d="M214.2 117.7c-2 .6-5.1.9-5.1.9s2.8-.8 4.7-1.5c1.6-.6 2.6-1.7 2.6-1.7s-1.3-1.3-2.9-2.4c-1.5-.9-3.8-1.4-3.8-1.4s.2 2.4-.9 3.7c-1.6 1.9-5.8 1.1-6.8-.1-1.2-1.3-1.2-3.7-1.2-3.7s-1.4.2-2.6.9c-1.2.7-2.1 1.8-2.1 1.8s1.2 1.8 2.9 2.4c1.8.6 4.2 1.5 4.2 1.5l.4.5s-3.1-.2-6.3-1.9c-.9-.4-2.1-2.4-2.1-2.4s3.9-4.8 10.2-4.5c7.8.3 12.2 6.2 12.2 6.2s-1.3 1.2-3.4 1.7zm50.2-1.1c-3.3 1.6-6.4 1.8-6.4 1.8l.4-.5s2.4-.8 4.3-1.3c1.8-.6 3-2.3 3-2.3s-.9-1.2-2.1-1.9c-1.1-.7-2.5-1-2.5-1s-.1 2.4-1.3 3.7c-1.1 1.1-5.2 1.9-6.8-.1-1.1-1.3-.8-3.7-.8-3.7s-2.4.5-3.8 1.4c-1.7 1-3 2.3-3 2.3s1 1.1 2.6 1.7c1.8.8 4.6 1.6 4.6 1.6s-3.1-.4-5.1-1c-2-.6-3.4-1.9-3.4-1.9s4.5-5.8 12.4-5.9c6.3-.1 10.1 4.8 10.1 4.8s-1.4 1.9-2.2 2.3z"/><path id="pupila-olho" class="st0" d="M255.8 114.8c-1.1 0-1.9-.9-1.9-2s.9-1.9 2-1.9 1.9.9 1.9 2c-.1 1-.9 1.9-2 1.9zm-50.8 0c-1.1 0-1.9-.9-1.9-2s.9-1.9 2-1.9 1.9.9 1.9 2-.9 1.9-2 1.9z"/><path id="brilho-olho" class="st4" d="M206.7 113.5c-.4 0-.7-.3-.7-.8 0-.4.3-.7.7-.7.4 0 .8.3.8.8.1.4-.4.7-.8.7zm1.3-.3c-.6-.1-.9-.4-.9-.9 0-.4.3-.8.8-1.1.4-.4 1 .2 1.2 1 .2.8-.5 1.1-1.1 1zm49.5-.2c-.4 0-.7-.3-.7-.7 0-.4.3-.7.7-.7.4 0 .8.3.8.8.1.4-.4.6-.8.6zm1.3-.2c-.6-.1-.9-.4-.9-.8s.3-.8.8-1.1c.5-.4 1 .2 1.2 1 .2.7-.5 1-1.1.9z"/><path id="barba-cabelo-sobrancelha" class="st6" d="M293.1 91.8c.2 1.8-3.3 4.6-3.2 5.7.3 1.9 1.5.8 1.5.8s-1.9 2-5.5 3c-1.1.3.5 2.8-.4 3.5-1.8 1.3-5.6 1.1-5.6 1.1s2.7-19.4.2-31.2c-1.3-6.2-2.9-8.8-2.9-8.8s-1.7-1-3.9-2.9c-2.2-2-3.9-5.9-3.9-5.9s-4.2.3-5.9-1c-2-1.6-2-3.9-2-3.9s-4-1.7-8.8 0c-5.6 2-12.5 7.4-17.6 8.8-3.3.9-6.8 0-6.8 0s-7-2.6-9.8-3.9c-2.8-1.4-6.7-5-8.8-5.9-1.9-.8-2.9 0-2.9 0s-.4 1-2 1c-1.8 0-4.9-1-4.9-1s-.2 3.6-2.9 4.9c-1.5.7-5.6.9-8.8 2.9-3.9 2.5-6.8 6.8-6.8 6.8s.5 3.1 0 6.8c-.4 2.9-1.8 5.9-2 9.8-.3 9.7 1.3 26 1.3 26l-.8 2.7s-.7-5.9-2.2-9.7c-.9-2.2-3.1-3.1-3.1-3.1.2-2.5-5.8-6-5.8-2.4 0 0-1.2-2.9-.8-4.3 1.2-3.7 5.7-3.2 5.7-3.2s-1.9-3.1-4-4.4c-2.2-1.3-3.9 1.5-3.9 1.5s1.3-4.2 3.5-3.8c1.5.2 3.5 2.7 3.5 2.7s.9-1.3 0-2.3c-.8-.9-3.5-1.6-3.5-1.6l3.3-1.6s-1.7.3-1.7-.7c0-.7 1.6-2.7 1.6-2.7s.9-.7.8-1.5c-.1-.7-1.1-1.7-1.1-1.7.1 0-.4-3.8-.4-3.8l1.8-.9s.2-2.8-.4-3.8c-.5-.9-1.8-.7-1.8-.7l2-2.3s.3-4.4 1.3-7.7c.6-1.8 1.9-2.6 2.3-3.5.6-1.4 1-3.9 1.8-5.3 1.2-2 2.9-2.9 4.5-4.8 1.5-1.9 3.3-3.8 5.2-5.6 2.4-2.2 5.2-4.3 8.3-6.2 1.5-.9 2.7-2.9 4.3-3.7 1.8-.9 4-.5 6-1.2 2.6-.9 4.6-2.6 7.5-3.2 5.4-1.2 12.4-1.1 11.4-.9-.1 0-.3 0-.4.1.2 0 .3 0 .4-.1 1.7-.3 3.3-1 4.9-1 1.4 0 2.9.8 4.2.9 2.4.2 4.6-.3 6.8.2 2.5.5 4.9 2 7.2 2.8 1.3.5 3.3.6 4.4 1.1 1.6.7 2.4 1.9 3.9 2.8 1.2.7 2.7.6 3.8 1.4 1 .7 1.5 2.1 2.5 2.8 1.3 1 3.3 1.2 4.4 2.2 1.4 1.2 1.8 3.2 3 4.5 1.3 1.3 3.2 2.3 4.3 3.6 1.1 1.3 1.3 3 2.1 4.2.6.8 1.9 1.1 2.3 1.9.6.8.3 2 .7 2.7.5.8 1.3 1.6 1.7 2.2 1 1.8 1.1 3 1.1 3s1.1 2.4 1.3 4.8c.3 2.3-.3 4.5-.3 4.5l-1.2 2.7 1.9 1s-1.3 1.5-1.3 2.4c0 .9 1.4 1.2 1.4 1.2s.3 4.1.4 5c.7 3.3 3.1.8 3.1.8s.4 2.5-.1 4.6c-.4 1.9-1.6 3.5-1.6 3.5l5.5 3.3s-3.6.6-3.6 1.3c0 3.5 4.2 2 4.3 2.7zm-101.7 14.1l-1.1-2.7s2.1-1.4 4.5-2.1c3.1-.9 6.8-1.2 6.8-1.2l17 4.4s.4.9.4 1.7c0 .7-.4 1.3-.4 1.3s-8.3-1.2-15.7-1.6c-6-.3-11.5.2-11.5.2zm64.4-1.9c-6.6.6-13 2.3-13 2.3s-.8-.7-.8-1.4c0-.8.8-1.7.8-1.7l17.1-5.6s2.7.5 5.5 1.4c2.8.9 5.7 2.2 5.7 2.2l-1.2 2.7s-7.1-.5-14.1.1zm-75.5 21.2l1.1 1.6c0 1.2-.1 2.5 0 4.4.1 1.8.6 3 .6 3s-.3 1.3-.3 2.2c.1 1.1.6 1.8.6 1.8s-.2 1.6 0 2.9c.2 1.2.8 2.1.8 2.1s.6 2.9.9 3.9c.5 0 .9.8 1.4.9.5 0 1.1-.8 1.7-.8.3.4.4 1.6.6 2 1.6 2.2 2.4.5 2.4.5s0 1.8.3 2.3c.4.8 1 .6 1 .6s-.3 1.8.2 2.8c.5 1.1 1.8 1.4 1.8 1.4s-.4 1.5.1 2.5c.9 1.9 3 3.9 3 3.9s-.7 1-.6 1.7c.1.7.9 1 .9 1s0 1.3.4 1.9c.6.8 1.7 1 1.7 1s-.3 1.4.2 2.1c.6.8 2.3 1.4 2.3 1.4s1.1.3 1.5 0c.4-.3.8-1.5.8-1.5s-.1-4.1-.3-7c-.3-2.5-1.6-6.4-1.4-9.1.2-.2.4-1.3.6-1.5.3-.4.6 0 1-.5.2-.1.8 1 1.1 1 .3-.1.6-.5.9-.6-.1-1.9 1.6-1.6 1.6-1.6s.1-.3.4-.5c.2-.2.6-.4.6-.4s-.8-1.1 1.8-1.1c1.2-1.3 1.8-.5 3.5 0 .4-.4.4-2 .8-2.3.4-.2 1.3 0 1.7-.2.5-.2.6-.8 1-1 .4-.1.8.6 1.3.6.5-.1 1-.9 1.5-1 .4.1 1 1.7 1.6 1.7.7.1 1.4-1.4 1.4-1.4s.6 1.2 1.3 1.3c.7.1 1.4-1 2-.9.9.7 1.8 1.3 2.7 2 .3.1.6-.2.9-.2.2.1.4.5.7.6.3-.1.6-.5 1-.6.5-.1.9.2.9.2s.3-.5.7-.6c.2-.1.4.3.6.2.4-.2 1.2-.5 1.2-.5s.5.3.7.2c.3-.1.3-.7.3-.7s.4.2.8 0c-.3.1.3 1.9.8 1.7.5-.2 1-2.2 1-2.2s1 1.4 1.7 1.3c.5-.1.7-1.7 1.2-1.8.2 0 .5.4.8.5.6.1 1.3-.3 1.3-.3s.2.4.8.5c.7.1 2.4 1.2 2.4 1.6 0 0 0 .1-.1.1.1 0 .1 0 .1-.1.1-.3 0-1.4 0-1.4s1.4.8 1.9.8c.4 0 0-1.3 0-1.3s.4.4.8.4.8-.4.8-.4.6 1.5 1.2 1.5c.5 0 1.1-1.5 1.1-1.5s-.1.6.3.7c.3.2 1-.1 1-.1s0 .6.5.8c.4.2 1.3.1 1.3.1s.4.6.8.8c.4.2.7 0 .7 0s0 .6.3.8c.3.2 1-.1 1-.1s-.1.7.2 1.1c.3.3.9.3.9.3s1.3 1 1.1 3.5c-.2 3.1-1.6 11.4-1.6 11.4s.5 1.2 1 1.6c.8.7 1.7-.1 1.7-.1s1.3.5 1.9.4c.1-.3 1.1 1.4 1.4 1.2.5-.3.3-2.5.3-2.5s1.6-.1 2.1-.7-.1-1.6-.1-1.6 1.5 0 1.9-.5c.4-.5-.3-1.5-.3-1.5s1.6-.1 2-.6c.4-.5-.3-1.5-.3-1.5s1.7-.6 2.2-1.3c.5-.6-.2-1.2-.2-1.2s2.1 1.3 2.7.6c.6-.7-.4-3.3-.4-3.3s2.1-1.6 2.7-3.5c.4-1.3-.3-3.8-.3-3.8s.9-.2 1-1.3c.1-1.1-.5-2.9-.5-2.9s.9-.4 1-1.2c.1-.9-.5-2.1-.5-2.1s.9-.2 1-1c.1-1-.5-2.5-.5-2.5s.5-.5.6-1.4c.1-.9-.1-2.2-.1-2.2l.5-3.9s.4-9 .5-13.5l.3 18s.4.8.4 1.8c0 1.2-.3 2.7-.3 2.7s.4.6.4 1.2c0 .5-.4 1-.4 1s.3.8.2 1.6c-.1.7-.6 1.4-.6 1.4s.2.2.3.6c.2.3.3.8.2 1.3-.1.9-1 1.8-1 1.8s.6 1.3.5 2.5c-.1 1-1 1.9-1 1.9s.7 1.1.5 2.1c-.1 1.1-1 2.2-1 2.2s0 .9-.3 1.7c-.3.7-1 1.5-1 1.5s.4.9 0 1.8c-.4 1-1.6 2.1-1.6 2.1s.1 1.6-.5 3.1c-.5 1.3-1.8 2.4-1.8 2.4s.4.9 0 1.8-1.5 1.8-1.5 1.8.3 1-.2 1.6c-.4.5-1.6.7-1.6.7s.2.6 0 .9c-.3.3-1 .3-1 .3s.3 1-.2 1.6c-.6.8-2 1.2-2 1.2s.6 1.5.1 2.1c-.6.8-1.6 1.2-1.6 1.2s.4.9 0 1.4c-.5.6-1.8.9-1.8.9s0 .5-.3.9c-.2.3-.8.5-.8.5s.4.5 0 1-1.6 1-1.6 1 .5.3.2.6-1.3.6-1.3.6.8 1.2.4 1.6c-.4.4-1.5.9-1.5.9s.4.4.1.8c-.3.3-1.3.6-1.3.6s.2.6-.1 1c-.4.5-1.2.7-1.2.7s.2.2.1.4c-.2.2-1.5.1-1.5.1s.1.7-.2 1.1c-.4.4-1.1.5-1.1.5s-.7 1-1.3 1.2c-.8.2-1.6-.3-1.6-.3s-.9 1.1-2.1 1.5c-1.1.3-2.6-.1-2.6-.1s-.2.6-.8.7c-.6.2-1.5 0-1.5 0s-.5.5-1.1.7c-.6.2-1.3 0-1.3 0s-.6.9-1.3 1.1c-.8.2-1.6-.3-1.6-.3s-.7 1-1.7 1.3c-.9.3-2.2-.2-2.2-.2s-1.3.6-2.5.5c-1.1-.1-2.1-.9-2.1-.9s-.9.6-1.8.6c-.8-.1-1.7-.9-1.7-.9s-.7.7-1.3.6c-.5 0-1-.8-1-.8s-.6.3-1.2.3c-.6-.1-1.3-.5-1.3-.5s-.8.6-1.6.6c-.8-.1-1.5-.8-1.5-.8s-.5.7-1 .6c-.5 0-1-.8-1-.8s-1.3.3-2.2-.1c-.7-.3-1-1.3-1-1.3s-1.1.4-1.8.1c-.6-.3-.7-1.2-.7-1.2s-1 .4-1.6.2c-.6-.3-.8-1.2-.8-1.2s-.7.4-1.3.1c-.6-.2-1.1-1.2-1.1-1.2s-1.2.3-1.8 0c-.5-.2-.5-1.1-.5-1.1s-1-.6-1.5-1.4c-.5-.7-.5-1.7-.5-1.7s-.7-.1-1-.6c-.3-.5-.3-1.5-.3-1.5s-1.7-1.9-2.4-2.9c-.3-.5-.2-1.2-.2-1.2s-.6 0-.8-.3c-.3-.5-.2-1.4-.2-1.4s-.9-.3-1.4-.9c-.4-.6-.5-1.5-.5-1.5s-.7-.1-1.1-.5c-.4-.5-.3-1.3-.3-1.3s-.7 0-1-.5c-.5-.6-.7-1.7-.7-1.7s-1.1-.3-1.4-1c-.2-.5.3-1.3.3-1.3s-.6-.2-.9-.8c-.3-.6-.1-1.6-.1-1.6s-.7-.2-.9-.8c-.2-.5 0-1.3 0-1.3s-.6-.1-.8-.5c-.2-.4 0-1.2 0-1.2s-.9-.5-1.1-1c-.2-.6.3-1.3.3-1.3s-1-.3-1.2-.9c-.2-.5.4-1.3.4-1.3s-1-.1-1.1-.6c-.2-.6.3-1.6.3-1.6s-1-.1-1.1-.6c-.2-.5.4-1.3.4-1.3s-.8-.2-.9-.5c-.1-.4.5-.8.5-.8s-.9 0-1.1-.5c-.2-.6.3-1.8.3-1.8s-.9-1.1-1.1-2.1c-.2-.9.5-1.8.5-1.8s-.9-.7-1-1.4c-.1-.9.5-1.9.5-1.9s-.9-.3-1-.9c-.1-.7.5-1.9.5-1.9s-.9-1-1.1-2c-.2-1.3.3-2.8.3-2.8s-1-.7-1.1-1.7c-.2-1.1.4-2.5.4-2.5s-.8-1.2-.9-2.5v-.7c0-.2 0-.5.1-.7.1-.4.1-.9.2-1.2.2-.7-.6-2.7-.6-2.7.5-1.5.5-2.1.9-4.1zm25.2 34.5l.3 2.7c.1.3-.1 1.4 0 1.8.3.6.9.5.9.5s-.5 1-.3 1.6c.2.4 1.1.4 1.1.4s-.2.9 0 1.3c.1.3.6.2.6.2s-1 2.8-.8 3.3c.2.4 2.7.8 2.7.8s-.5.6-.3 1.1c.2.4 1.1.8 1.1.8s-1.7 1.3-1.4 1.9c.4.9 1.8.6 2.2 1.4.4.8 1.5 1.6 1.5 1.6s-1.3 1.3-1 1.9c.3.7 2.2.7 2.2.7s.2.5.4.5c.3.1.6-.2.6-.2s-.6 2.9-.1 3.2c.4.2 2-2.3 2-2.3s.4 1 .9 1.2c.7.3 1.6-.1 1.6-.1s.7 1.5 1 1.4c.4-.1.4-1.8.4-1.8s.3.3.6.2c.4-.1.9-.7.9-.7s1.2 1.4 1.8 1.3c.4-.1.1-1.8.4-1.9.1-.3.2-.8.2-.8l.2-.8s1.6.2 1.7-.1c.1-.3-1.4-1-1.4-1l.4-1.2s.8-.5.9-1c.1-.6-.6-1.2-.6-1.2s.4-.4.5-.8c.1-.5-.3-.9-.3-.9s-.5-1-1-1.2c-.5-.2-1.1.3-1.1.3s-.7-1.1-1.4-1.3c-.7-.3-1.5.2-1.5.2s-.5-.7-1.2-1.2c-.5-.3-1.2-.6-1.2-.6l-2.3-1.7 2.4.6s.5.9 1.1 1c.7.2 1.5-.4 1.5-.4s1.3.7 2.2.7c.8 0 1.1-.8 1.1-.8s.8.7 1.6.7c.7 0 1.5-.8 1.5-.8s.8.7 1.5.7 1.4-.8 1.4-.8 1.1.7 2.1.6c.8 0 1.5-.9 1.5-.9s1.3.7 2.4.6c.9-.1 1.8-.9 1.8-.9s.7.6 1.5.4c.8-.2 1.6-1.2 1.6-1.2s1 .1 2.2-.2c1.3-.3 2.6-1.1 2.6-1.1l-2.8 1.8s-.9.3-1.4.7c-.7.4-1.1.9-1.1.9s-.9 0-1.5.3c-.5.3-.7 1.1-.7 1.1l-2 .8s-.6 1.1-1.1 1.5c0 .1-1.5.1-1.6.7-.3 1.4.8 2 .8 2v1.5s-1.2 1.1-.8 1.9c.4.8 2.3 1.2 2.3 1.2s-.2.5 0 .7c.3.2.9 0 .9 0s-.1.6.1.8c.3.2 1 .1 1 .1s-.5 1.3-.3 1.6c.3.2 1.3-.7 1.3-.7s.3 1.5.7 1.4c.3-.1.7-1.6.7-1.6s.3.3.6.3c.3-.1.7-.5.7-.5s.6 1.5.8 1.5c.2 0 .1-1.6.1-1.6l1.3-.6s1 .1 1.6-.2c.5-.3.6-.9.6-.9s1.2.2 1.7-.1c.5-.3.3-1 .3-1s1 0 1.3-.4c.3-.5-.1-1.4-.1-1.4s1.1-.1 1.5-.7c.3-.5-.1-1.4-.1-1.4s1-.3 1.2-.6c.2-.3-.4-.6-.4-.6s.7-.1 1-.5c0 0 2-.2 2.4-1.2.7-1.6-.1-4-.3-2.6.1-.5-.6-1-.6-1s.8-.4.9-.8c.1-.4-.6-.9-.6-.9s.8-.4.9-1c.1-.7-.6-1.6-.6-1.6s.7-.5.6-1c-.1-.3-.9-.7-1-.9 0 0 .7-.6.7-1.3-.1-.9-.9-1.9-.9-1.9s.7-.6.7-1.3c0-.7-.8-1.4-.8-1.4s.5-.5.1-1c-.1-.2 1.4-1.8 0-2.2-1.1-.3-2.1.5-2.1.5s-.7-.8-2-.8c-.8 0-1.8.7-1.8.7s-.3-.8-.9-.8c-.6 0-1.5.7-1.5.7s-1.4-1.6-2.9-1.7c-1.6-.1-3.2 1.4-3.2 1.4s-1.8-1.2-2.7-1.2c-.8 0-3.1 1.1-3.1 1.1s-3.1-.8-4.3-.8c-1 .1-1.9.4-2.7.5-.6.1-1 .3-1 .3s-1.6-1.1-3-1c-1.6.1-3.2 1.4-3.2 1.4s-.5-.7-1.1-.7c-.5 0-.9.8-.9.8s-.4-.7-.9-.7-.9.8-.9.8-.9-1.9-2.1-1.5c-.5.2-1.3 1.7-1.3 1.7s-.9-.7-1.8-.7c-.8 0-1.6.9-1.6.9s-1.2-.4-1.9 0c-.3.1-1.3 0-1.5.3-.3.4.3 1.2.3 1.2s-1 .5-1.3 1c-.3.4.1 1 .1 1z"/><path id="oculos" class="st0" d="M178.4 111.5l2 .8c.7.3 1.2.9 1.3 1.5 1 12.8 5.5 16 19.7 16.6 14.2.6 22-5.8 23.6-11.6.6-2.5 3.1-3.6 5.8-3.7s5.1 1.2 5.8 3.6c1.6 5.9 9.4 12.1 23.6 11.5 14.2-.6 18.7-3.9 19.6-16.7 0-.6.5-1.1 1.2-1.5l1.6-.9c.4-.2.6-.6.6-.9v-3c0-.5-.6-1.8-.6-1.8h-2.3l.1.6s-13.2-1-21.1-.8c-3.3.1-9.8.8-13.5 1.7-4.4 1.2-11.2 3-15 3-3.8 0-10.7-1.8-15.1-2.9-3.7-1-10.2-1.6-13.5-1.7-7.7-.1-20.9.8-20.9.8l-1.1-1.1H179s-1.7 1.8-1.7 2.5v3c0 .5.7.8 1.1 1zm61.9 2c1-4.7 28.2-6.9 32.4-3.4 5.4 4.6 2.1 13.8-1.6 15.9-3.6 2-16.7 3.1-22.4.7-6.6-2.8-9.6-8-8.4-13.2zm-51.5-3.2c4.2-3.6 31.3-1.5 32.4 3.2 1.2 5.2-1.8 10.4-8.3 13.2-5.6 2.5-18.8 1.4-22.4-.6-3.7-1.9-7.1-11.1-1.7-15.8z"/></svg>
